PathFileType	4	(X/Y/Z)	C:\Users\italobelli\Desktop\GitHub\PTbot_officialCBL\Personal_Results\FLX23_noisy2.trc
DataRate	CameraRate	NumFrames	NumMarkers	Units	OrigDataRate	OrigDataStartFrame	OrigNumFrames
106.533333	106.533333	51	9	m	106.533333	1	800
Frame#	Time		gu		centelbow		EpL		centpxt8		centijc7		ij		ts		aa		ai
			X1	Y1	Z1	X2	Y2	Z2	X3	Y3	Z3	X4	Y4	Z4	X5	Y5	Z5	X6	Y6	Z6	X7	Y7	Z7	X8	Y8	Z8	X9	Y9	Z9

1	0	-0.074706	-0.018616	0.16617	-0.12923	-0.25464	0.19195	-0.1116	-0.25184	0.2188	-0.046816	-0.15316	-0.008669	-0.046816	0.031938	-0.008669	0	0	0	-0.13497	0.026718	0.054083	-0.10524	0.019425	0.16935	-0.15399	-0.085148	0.057302
2	0.0093867	-0.074714	-0.018654	0.16617	-0.12914	-0.25463	0.19202	-0.11149	-0.25184	0.21886	-0.046816	-0.15316	-0.008669	-0.046816	0.031938	-0.008669	0	0	0	-0.13501	0.026701	0.054084	-0.10527	0.019394	0.16935	-0.15402	-0.085167	0.057288
3	0.018773	-0.074722	-0.018693	0.16617	-0.12904	-0.25463	0.1921	-0.11139	-0.25183	0.21892	-0.046816	-0.15316	-0.008669	-0.046816	0.031938	-0.008669	0	0	0	-0.13504	0.026685	0.054086	-0.1053	0.019363	0.16935	-0.15405	-0.085186	0.057274
4	0.02816	-0.074729	-0.018732	0.16616	-0.12895	-0.25463	0.19217	-0.11129	-0.25183	0.21898	-0.046816	-0.15316	-0.008669	-0.046816	0.031938	-0.008669	0	0	0	-0.13508	0.026669	0.054087	-0.10532	0.019332	0.16935	-0.15407	-0.085205	0.05726
5	0.037547	-0.074736	-0.018771	0.16616	-0.12886	-0.25462	0.19225	-0.11119	-0.25183	0.21905	-0.046816	-0.15316	-0.008669	-0.046816	0.031938	-0.008669	0	0	0	-0.13512	0.026652	0.054089	-0.10535	0.0193	0.16935	-0.1541	-0.085223	0.057247
6	0.046934	-0.074744	-0.01881	0.16616	-0.12878	-0.25462	0.19233	-0.1111	-0.25182	0.21911	-0.046816	-0.15316	-0.008669	-0.046816	0.031938	-0.008669	0	0	0	-0.13515	0.026636	0.05409	-0.10538	0.019269	0.16935	-0.15413	-0.085241	0.057235
7	0.05632	-0.074751	-0.018849	0.16616	-0.12869	-0.25462	0.19241	-0.111	-0.25182	0.21918	-0.046816	-0.15316	-0.008669	-0.046816	0.031938	-0.008669	0	0	0	-0.13519	0.026621	0.054092	-0.10541	0.019238	0.16934	-0.15416	-0.085259	0.057223
8	0.065707	-0.074758	-0.018889	0.16616	-0.12861	-0.25462	0.19249	-0.11091	-0.25182	0.21925	-0.046816	-0.15316	-0.008669	-0.046816	0.031938	-0.008669	0	0	0	-0.13522	0.026605	0.054094	-0.10543	0.019206	0.16934	-0.15419	-0.085276	0.057212
9	0.075094	-0.074765	-0.018928	0.16616	-0.12853	-0.25462	0.19257	-0.11082	-0.25182	0.21932	-0.046816	-0.15316	-0.008669	-0.046816	0.031938	-0.008669	0	0	0	-0.13526	0.02659	0.054097	-0.10546	0.019175	0.16934	-0.15421	-0.085294	0.0572
10	0.084481	-0.074772	-0.018967	0.16616	-0.12845	-0.25462	0.19266	-0.11073	-0.25182	0.2194	-0.046816	-0.15316	-0.008669	-0.046816	0.031938	-0.008669	0	0	0	-0.13529	0.026575	0.054099	-0.10549	0.019144	0.16934	-0.15424	-0.085311	0.05719
11	0.093867	-0.074778	-0.019006	0.16616	-0.12837	-0.25462	0.19274	-0.11064	-0.25182	0.21947	-0.046816	-0.15316	-0.008669	-0.046816	0.031938	-0.008669	0	0	0	-0.13533	0.02656	0.054101	-0.10551	0.019113	0.16934	-0.15427	-0.085327	0.05718
12	0.10325	-0.074785	-0.019044	0.16616	-0.12829	-0.25462	0.19283	-0.11055	-0.25183	0.21955	-0.046816	-0.15316	-0.008669	-0.046816	0.031938	-0.008669	0	0	0	-0.13536	0.026545	0.054104	-0.10554	0.019082	0.16934	-0.1543	-0.085344	0.05717
13	0.11264	-0.074792	-0.019083	0.16616	-0.12822	-0.25462	0.19292	-0.11047	-0.25183	0.21963	-0.046816	-0.15316	-0.008669	-0.046816	0.031938	-0.008669	0	0	0	-0.1354	0.026531	0.054106	-0.10556	0.019051	0.16935	-0.15432	-0.08536	0.057161
14	0.12203	-0.074798	-0.019121	0.16616	-0.12814	-0.25462	0.19301	-0.11039	-0.25183	0.21971	-0.046816	-0.15316	-0.008669	-0.046816	0.031938	-0.008669	0	0	0	-0.13543	0.026516	0.054109	-0.10559	0.019021	0.16935	-0.15435	-0.085376	0.057152
15	0.13141	-0.074804	-0.019159	0.16616	-0.12807	-0.25462	0.1931	-0.11031	-0.25184	0.21979	-0.046816	-0.15316	-0.008669	-0.046816	0.031938	-0.008669	0	0	0	-0.13547	0.026502	0.054112	-0.10561	0.018991	0.16935	-0.15438	-0.085391	0.057143
16	0.1408	-0.07481	-0.019196	0.16617	-0.128	-0.25463	0.19319	-0.11023	-0.25184	0.21987	-0.046816	-0.15316	-0.008669	-0.046816	0.031938	-0.008669	0	0	0	-0.1355	0.026488	0.054115	-0.10564	0.018961	0.16935	-0.1544	-0.085407	0.057135
17	0.15019	-0.074817	-0.019233	0.16617	-0.12793	-0.25463	0.19328	-0.11015	-0.25184	0.21996	-0.046816	-0.15316	-0.008669	-0.046816	0.031938	-0.008669	0	0	0	-0.13553	0.026475	0.054118	-0.10566	0.018932	0.16935	-0.15443	-0.085422	0.057127
18	0.15957	-0.074823	-0.019269	0.16617	-0.12786	-0.25463	0.19337	-0.11007	-0.25185	0.22004	-0.046816	-0.15316	-0.008669	-0.046816	0.031938	-0.008669	0	0	0	-0.13556	0.026461	0.054121	-0.10569	0.018902	0.16935	-0.15445	-0.085436	0.05712
19	0.16896	-0.074828	-0.019305	0.16617	-0.12779	-0.25464	0.19347	-0.11	-0.25185	0.22013	-0.046816	-0.15316	-0.008669	-0.046816	0.031938	-0.008669	0	0	0	-0.1356	0.026448	0.054124	-0.10571	0.018874	0.16935	-0.15448	-0.085451	0.057113
20	0.17835	-0.074834	-0.01934	0.16617	-0.12773	-0.25464	0.19356	-0.10992	-0.25186	0.22022	-0.046816	-0.15316	-0.008669	-0.046816	0.031938	-0.008669	0	0	0	-0.13563	0.026435	0.054128	-0.10574	0.018845	0.16935	-0.15451	-0.085465	0.057107
21	0.18773	-0.07484	-0.019375	0.16618	-0.12766	-0.25465	0.19366	-0.10985	-0.25187	0.22031	-0.046816	-0.15316	-0.008669	-0.046816	0.031938	-0.008669	0	0	0	-0.13566	0.026422	0.054131	-0.10576	0.018818	0.16935	-0.15453	-0.085479	0.057101
22	0.19712	-0.074846	-0.019409	0.16618	-0.1276	-0.25465	0.19376	-0.10978	-0.25187	0.2204	-0.046816	-0.15316	-0.008669	-0.046816	0.031938	-0.008669	0	0	0	-0.13569	0.02641	0.054134	-0.10578	0.01879	0.16936	-0.15456	-0.085492	0.057095
23	0.20651	-0.074851	-0.019442	0.16618	-0.12753	-0.25466	0.19386	-0.10971	-0.25188	0.22049	-0.046816	-0.15316	-0.008669	-0.046816	0.031938	-0.008669	0	0	0	-0.13572	0.026398	0.054138	-0.1058	0.018764	0.16936	-0.15458	-0.085505	0.05709
24	0.21589	-0.074857	-0.019474	0.16619	-0.12747	-0.25466	0.19396	-0.10964	-0.25189	0.22058	-0.046816	-0.15316	-0.008669	-0.046816	0.031938	-0.008669	0	0	0	-0.13575	0.026385	0.054142	-0.10583	0.018737	0.16936	-0.15461	-0.085518	0.057085
25	0.22528	-0.074863	-0.019505	0.16619	-0.12741	-0.25467	0.19406	-0.10957	-0.25189	0.22068	-0.046816	-0.15316	-0.008669	-0.046816	0.031938	-0.008669	0	0	0	-0.13578	0.026374	0.054146	-0.10585	0.018712	0.16936	-0.15463	-0.085531	0.05708
26	0.23467	-0.074868	-0.019536	0.16619	-0.12735	-0.25468	0.19416	-0.1095	-0.2519	0.22078	-0.046816	-0.15316	-0.008669	-0.046816	0.031938	-0.008669	0	0	0	-0.13581	0.026362	0.054149	-0.10587	0.018687	0.16936	-0.15466	-0.085543	0.057076
27	0.24406	-0.074873	-0.019565	0.1662	-0.12729	-0.25469	0.19426	-0.10944	-0.25191	0.22087	-0.046816	-0.15316	-0.008669	-0.046816	0.031938	-0.008669	0	0	0	-0.13584	0.026351	0.054153	-0.10589	0.018663	0.16937	-0.15468	-0.085555	0.057072
28	0.25344	-0.074879	-0.019594	0.1662	-0.12723	-0.25469	0.19436	-0.10937	-0.25192	0.22097	-0.046816	-0.15316	-0.008669	-0.046816	0.031938	-0.008669	0	0	0	-0.13587	0.02634	0.054157	-0.10591	0.018639	0.16937	-0.1547	-0.085567	0.057068
29	0.26283	-0.074884	-0.019621	0.1662	-0.12717	-0.2547	0.19447	-0.10931	-0.25193	0.22107	-0.046816	-0.15316	-0.008669	-0.046816	0.031938	-0.008669	0	0	0	-0.13589	0.026329	0.054162	-0.10593	0.018616	0.16937	-0.15473	-0.085578	0.057065
30	0.27222	-0.074889	-0.019647	0.16621	-0.12711	-0.25471	0.19457	-0.10924	-0.25193	0.22117	-0.046816	-0.15316	-0.008669	-0.046816	0.031938	-0.008669	0	0	0	-0.13592	0.026318	0.054166	-0.10595	0.018594	0.16937	-0.15475	-0.085589	0.057062
31	0.2816	-0.074894	-0.019672	0.16621	-0.12706	-0.25472	0.19468	-0.10918	-0.25194	0.22127	-0.046816	-0.15316	-0.008669	-0.046816	0.031938	-0.008669	0	0	0	-0.13595	0.026308	0.05417	-0.10597	0.018573	0.16938	-0.15478	-0.0856	0.05706
32	0.29099	-0.0749	-0.019696	0.16622	-0.127	-0.25473	0.19478	-0.10912	-0.25195	0.22138	-0.046816	-0.15316	-0.008669	-0.046816	0.031938	-0.008669	0	0	0	-0.13597	0.026298	0.054174	-0.10599	0.018552	0.16938	-0.1548	-0.08561	0.057058
33	0.30038	-0.074905	-0.019719	0.16622	-0.12695	-0.25474	0.19489	-0.10906	-0.25196	0.22148	-0.046816	-0.15316	-0.008669	-0.046816	0.031938	-0.008669	0	0	0	-0.136	0.026288	0.054179	-0.10601	0.018533	0.16938	-0.15482	-0.08562	0.057056
34	0.30976	-0.07491	-0.01974	0.16623	-0.12689	-0.25475	0.195	-0.10899	-0.25197	0.22159	-0.046816	-0.15316	-0.008669	-0.046816	0.031938	-0.008669	0	0	0	-0.13602	0.026278	0.054183	-0.10602	0.018514	0.16938	-0.15484	-0.08563	0.057054
35	0.31915	-0.074915	-0.01976	0.16623	-0.12684	-0.25476	0.1951	-0.10893	-0.25198	0.22169	-0.046816	-0.15316	-0.008669	-0.046816	0.031938	-0.008669	0	0	0	-0.13604	0.026269	0.054188	-0.10604	0.018497	0.16939	-0.15487	-0.085639	0.057053
36	0.32854	-0.07492	-0.019778	0.16624	-0.12678	-0.25477	0.19521	-0.10887	-0.25199	0.2218	-0.046816	-0.15316	-0.008669	-0.046816	0.031938	-0.008669	0	0	0	-0.13607	0.02626	0.054192	-0.10606	0.01848	0.16939	-0.15489	-0.085648	0.057052
37	0.33792	-0.074925	-0.019795	0.16624	-0.12673	-0.25478	0.19532	-0.10881	-0.252	0.22191	-0.046816	-0.15316	-0.008669	-0.046816	0.031938	-0.008669	0	0	0	-0.13609	0.026251	0.054197	-0.10607	0.018464	0.16939	-0.15491	-0.085657	0.057052
38	0.34731	-0.07493	-0.019811	0.16624	-0.12667	-0.25479	0.19543	-0.10876	-0.25201	0.22201	-0.046816	-0.15316	-0.008669	-0.046816	0.031938	-0.008669	0	0	0	-0.13611	0.026242	0.054202	-0.10609	0.01845	0.16939	-0.15493	-0.085665	0.057051
39	0.3567	-0.074935	-0.019824	0.16625	-0.12662	-0.2548	0.19554	-0.1087	-0.25202	0.22212	-0.046816	-0.15316	-0.008669	-0.046816	0.031938	-0.008669	0	0	0	-0.13613	0.026234	0.054206	-0.1061	0.018436	0.1694	-0.15495	-0.085673	0.057051
40	0.36608	-0.07494	-0.019837	0.16625	-0.12657	-0.25481	0.19565	-0.10864	-0.25203	0.22223	-0.046816	-0.15316	-0.008669	-0.046816	0.031938	-0.008669	0	0	0	-0.13615	0.026226	0.054211	-0.10612	0.018424	0.1694	-0.15497	-0.085681	0.057051
41	0.37547	-0.074945	-0.019847	0.16626	-0.12652	-0.25482	0.19576	-0.10858	-0.25204	0.22234	-0.046816	-0.15316	-0.008669	-0.046816	0.031938	-0.008669	0	0	0	-0.13617	0.026218	0.054216	-0.10613	0.018412	0.1694	-0.155	-0.085688	0.057052
42	0.38486	-0.07495	-0.019856	0.16626	-0.12646	-0.25483	0.19587	-0.10852	-0.25205	0.22245	-0.046816	-0.15316	-0.008669	-0.046816	0.031938	-0.008669	0	0	0	-0.13619	0.026211	0.054221	-0.10615	0.018402	0.16941	-0.15502	-0.085695	0.057053
43	0.39424	-0.074955	-0.019863	0.16627	-0.12641	-0.25484	0.19599	-0.10846	-0.25206	0.22257	-0.046816	-0.15316	-0.008669	-0.046816	0.031938	-0.008669	0	0	0	-0.1362	0.026204	0.054226	-0.10616	0.018393	0.16941	-0.15504	-0.085702	0.057054
44	0.40363	-0.074959	-0.019868	0.16627	-0.12636	-0.25485	0.1961	-0.10841	-0.25207	0.22268	-0.046816	-0.15316	-0.008669	-0.046816	0.031938	-0.008669	0	0	0	-0.13622	0.026197	0.054231	-0.10617	0.018386	0.16941	-0.15506	-0.085708	0.057055
45	0.41302	-0.074964	-0.019871	0.16628	-0.12631	-0.25487	0.19621	-0.10835	-0.25208	0.22279	-0.046816	-0.15316	-0.008669	-0.046816	0.031938	-0.008669	0	0	0	-0.13623	0.02619	0.054236	-0.10618	0.018379	0.16941	-0.15507	-0.085714	0.057057
46	0.4224	-0.074969	-0.019872	0.16628	-0.12625	-0.25488	0.19632	-0.10829	-0.25209	0.22291	-0.046816	-0.15316	-0.008669	-0.046816	0.031938	-0.008669	0	0	0	-0.13625	0.026184	0.054241	-0.10619	0.018374	0.16942	-0.15509	-0.08572	0.057059
47	0.43179	-0.074974	-0.019871	0.16629	-0.1262	-0.25489	0.19644	-0.10823	-0.2521	0.22302	-0.046816	-0.15316	-0.008669	-0.046816	0.031938	-0.008669	0	0	0	-0.13626	0.026178	0.054246	-0.1062	0.01837	0.16942	-0.15511	-0.085725	0.057061
48	0.44118	-0.074979	-0.019869	0.16629	-0.12615	-0.2549	0.19655	-0.10818	-0.25211	0.22314	-0.046816	-0.15316	-0.008669	-0.046816	0.031938	-0.008669	0	0	0	-0.13627	0.026172	0.054251	-0.10621	0.018368	0.16942	-0.15513	-0.08573	0.057063
49	0.45056	-0.074984	-0.019864	0.1663	-0.12609	-0.25491	0.19667	-0.10812	-0.25211	0.22325	-0.046816	-0.15316	-0.008669	-0.046816	0.031938	-0.008669	0	0	0	-0.13629	0.026166	0.054256	-0.10622	0.018367	0.16943	-0.15515	-0.085734	0.057066
50	0.45995	-0.074989	-0.019857	0.1663	-0.12604	-0.25493	0.19678	-0.10806	-0.25212	0.22337	-0.046816	-0.15316	-0.008669	-0.046816	0.031938	-0.008669	0	0	0	-0.1363	0.026161	0.054262	-0.10623	0.018368	0.16943	-0.15517	-0.085739	0.057068
51	0.46934	-0.074994	-0.019847	0.16631	-0.12599	-0.25494	0.19689	-0.108	-0.25213	0.22349	-0.046816	-0.15316	-0.008669	-0.046816	0.031938	-0.008669	0	0	0	-0.13631	0.026156	0.054267	-0.10624	0.01837	0.16943	-0.15519	-0.085742	0.057072
